<svg width="24" height="24" viewBox="0 0 24 24" fill="none" xmlns="http://www.w3.org/2000/svg">
<path d="M6.58089 6.64767L2.18603 2.46899L6.58089 6.64767ZM9.53814 14.1478C6.49567 17.4071 3.57008 20.5323 3.06981 21.0999C2.25732 22.0219 4.30011 24.1486 5.20772 23.1048C5.74743 22.4841 8.75976 19.4661 11.5712 16.076M13.5867 9.12648C13.6725 9.02349 13.7671 8.9138 13.878 8.79061C14.4615 8.14291 14.4469 7.46098 14.5055 5.50966C14.5641 3.55834 20.4754 -0.0158299 22.19 1.59187C23.9046 3.19958 21.3118 9.72207 19.172 9.88586C17.0322 10.0496 16.6793 10.1808 16.0816 10.8442C15.9825 10.9543 15.8994 11.0475 15.8261 11.1311M3.9656 0.613281L9.73298 5.40395C9.91426 6.22585 10.3586 8.38989 11.413 9.52894C11.7309 9.87237 13.0844 11.1262 14.5055 12.3513C17.7977 15.1891 22.386 19.3126 22.9811 19.8724C23.8331 20.6738 22 22.8388 21.1117 22.2159C20.5176 21.7992 12.7715 14.6728 9.53814 11.5015C8.73734 10.7923 6.66367 10.0687 5.65713 9.928L0.364258 4.37002" fill="#2D3134"/>
</svg>
