<svg width="25" height="18" viewBox="0 0 25 18" fill="none" xmlns="http://www.w3.org/2000/svg">
<path d="M0.106599 14.6205C0.106599 14.6205 0.106842 12.2061 0.106842 10.0115C0.106842 9.36876 1.83964 9.46304 1.83964 9.46304H4.75368H12.236H22.6323C22.6323 9.46304 24.365 9.36876 24.365 10.0115C24.365 11.6574 24.365 14.6206 24.365 14.6206M0.106599 14.6205L24.365 14.6206L0.106599 14.6205ZM0.106599 14.6205C0.106599 14.6205 0.106092 17.4511 0.106919 17.9999L2.69809 18L5.00837 14.6208M0.106599 14.6205L5.00837 14.6208L0.106599 14.6205ZM24.365 14.6206L19.4636 14.6208L24.365 14.6206ZM24.365 14.6206L24.3651 17.9999L21.7739 18L19.4636 14.6208M12.236 4.9587C12.236 3.31274 4.75368 3.31274 4.75368 4.9587C4.75368 5.48852 4.75368 6.55662 4.75368 7.51977M12.236 4.9587C12.236 3.31274 19.7182 3.31274 19.7182 4.9587C19.7182 5.69177 19.7182 6.66534 19.7182 7.51977M12.236 4.9587C12.236 5.48852 12.236 6.55662 12.236 7.51977C12.236 6.66534 12.236 5.69177 12.236 4.9587ZM5.00837 14.6208H19.4636H5.00837ZM1.83964 7.51977C1.83964 5.79612 1.83964 3.31991 1.83964 1.78193C1.83964 -0.768508 22.6323 -0.412772 22.6323 1.78184C22.6323 3.13041 22.6323 5.72201 22.6323 7.51977" fill="#2D3134"/>
</svg>
