<svg width="25" height="32" viewBox="0 0 25 32" fill="none" xmlns="http://www.w3.org/2000/svg">
<g clip-path="url(#clip0_170_1104)">
<path d="M12.2784 9.17478L11.5154 9.82178L12.2784 10.7218L13.0414 9.82178L12.2784 9.17478ZM12.3084 24.9988L11.6414 25.7448C11.8248 25.9087 12.062 25.9993 12.3079 25.9993C12.5538 25.9993 12.7911 25.9087 12.9744 25.7448L12.3084 25.0008V24.9988ZM13.0414 8.52878C10.7494 5.82578 6.78744 5.00078 3.78944 7.58478L5.09544 9.10078C7.10544 7.36778 9.81044 7.80978 11.5154 9.82178L13.0414 8.52878ZM3.78944 7.58478C0.886443 10.0878 0.466443 14.2958 2.75944 17.2728L4.34444 16.0528C2.70444 13.9228 2.99044 10.9148 5.09444 9.09978L3.79044 7.58478H3.78944ZM21.7964 17.2728C24.0814 14.3078 23.7264 10.0658 20.7564 7.57578L19.4714 9.10878C21.5964 10.8898 21.8624 13.9118 20.2124 16.0528L21.7964 17.2728ZM20.7564 7.57578C17.7264 5.03478 13.8154 5.81578 11.5164 8.52878L13.0414 9.82178C14.7384 7.81978 17.4084 7.37878 19.4714 9.10878L20.7564 7.57578ZM2.76044 17.2728C3.64044 18.4148 5.49044 20.1958 7.25844 21.8198C9.04644 23.4638 10.8434 25.0318 11.6414 25.7448L12.9744 24.2538C12.1504 23.5178 10.3874 21.9788 8.61144 20.3478C6.81544 18.6968 5.09944 17.0328 4.34444 16.0528L2.76044 17.2728ZM12.9744 25.7448C13.7784 25.0268 15.5544 23.4628 17.3314 21.8168C19.0844 20.1918 20.9184 18.4128 21.7964 17.2728L20.2124 16.0528C19.4554 17.0358 17.7524 18.6998 15.9724 20.3498C14.2134 21.9798 12.4594 23.5228 11.6424 24.2538L12.9744 25.7448Z" fill="#FF3000"/>
<path d="M9.64009 7.59766L12.1713 8.71094L13.59 8.20988L15.6764 7.62569L19.5988 8.12642L20.9341 10.185L22.3528 12.8556L21.3792 15.7487L19.0702 19.3651L14.9531 22.7033L13.284 24.4003L11.8096 24.3725L9.44503 22.9537L6.1068 19.8937L3.63095 16.3329L2.76858 13.6901L2.60254 11.2421L4.10439 8.68279L6.66361 7.68133L9.64009 7.59766Z" fill="#FF3000"/>
</g>
<defs>
<clipPath id="clip0_170_1104">
<rect width="22" height="20" fill="white" transform="translate(1.28516 6)"/>
</clipPath>
</defs>
</svg>
