<svg width="24" height="24" viewBox="0 0 24 24" fill="none" xmlns="http://www.w3.org/2000/svg">
<path d="M16.4794 0C14.9513 0 13.633 1.04869 12.824 2.6367C14.1723 4.25468 14.9813 6.47191 14.9813 9.01873C14.9813 9.88764 14.8914 10.6667 14.7116 11.4457C15.2809 11.7753 15.8502 12.015 16.4794 12.015C18.9663 12.015 20.9738 9.31835 20.9738 6.02247C20.9738 2.72659 18.9663 0.0299625 16.4794 0.0299625V0ZM7.49064 2.99625C5.00375 2.99625 2.99625 5.69288 2.99625 8.98876C2.99625 12.2846 5.00375 14.9813 7.49064 14.9813C9.97753 14.9813 11.985 12.2846 11.985 8.98876C11.985 5.69288 9.97753 2.99625 7.49064 2.99625ZM21.7228 12.4644C20.4345 13.9925 18.6667 14.9213 16.6592 14.9813C17.4682 16.1199 17.9775 17.4981 17.9775 18.9963V20.9738H23.97V16C23.97 14.4419 23.0412 13.0936 21.7228 12.4345V12.4644ZM2.24719 15.4607C0.928839 16.1199 0 17.4682 0 19.0262V24H14.9813V19.0262C14.9813 17.4682 14.0524 16.1199 12.7341 15.4607C11.3858 17.0487 9.55805 17.9775 7.49064 17.9775C5.42322 17.9775 3.59551 17.0187 2.24719 15.4607Z" fill="#E4CDFD"/>
</svg>
