<svg width="42" height="39" viewBox="0 0 42 39" fill="none" xmlns="http://www.w3.org/2000/svg">
<path d="M10.2886 26.2491C10.2886 27.1046 10.9448 27.6671 12.0581 27.6671H17.0034C17.0972 29.9288 18.8667 31.9093 21.3394 31.9093C23.8238 31.9093 25.5933 29.9288 25.687 27.6671H30.6324C31.7339 27.6671 32.4019 27.1046 32.4019 26.2491C32.4019 25.0772 31.2066 24.0225 30.1988 22.9796C29.4253 22.171 29.2144 20.5069 29.1206 19.1593C29.1089 18.3858 29.0503 17.671 28.98 16.9796C28.4292 17.1553 27.7027 17.2608 27.1284 17.2374C27.1988 17.8585 27.2456 18.5265 27.2574 19.3116C27.3628 21.5968 27.7613 23.1085 28.5933 24.046C29.2144 24.7257 29.9058 25.4171 30.1167 25.7569V25.8975H12.562V25.7569C12.773 25.4171 13.4761 24.7257 14.0855 24.046C14.9292 23.1085 15.3276 21.5968 15.4331 19.3116C15.5269 14.1905 17.0503 12.5616 19.0542 12.0108C19.3472 11.9405 19.5112 11.7999 19.523 11.4952C19.5581 10.2764 20.2612 9.42096 21.3394 9.42096C21.5503 9.42096 21.7495 9.44439 21.9136 9.51471C22.1363 8.97565 22.4292 8.47174 22.8042 8.02643C22.3706 7.81549 21.8784 7.6983 21.3394 7.6983C19.6167 7.6983 18.3511 8.90533 17.9644 10.4405C14.8472 11.5655 13.6519 14.5421 13.5698 19.1593C13.4761 20.5069 13.2651 22.171 12.4917 22.9796C11.4722 24.0225 10.2886 25.0772 10.2886 26.2491ZM18.8315 27.6671H23.8589C23.7652 29.2608 22.7574 30.2569 21.3394 30.2569C19.9331 30.2569 18.9136 29.2608 18.8315 27.6671ZM27.1167 15.7374C29.3316 15.7374 31.1831 13.9092 31.1831 11.6827C31.1831 9.44439 29.3316 7.61627 27.1167 7.61627C24.8784 7.61627 23.0503 9.44439 23.0503 11.6827C23.0503 13.9092 24.8784 15.7374 27.1167 15.7374Z" fill="#9B51E0"/>
</svg>
