<svg width="24" height="22" viewBox="0 0 24 22" fill="none" xmlns="http://www.w3.org/2000/svg">
<path d="M23.1064 5.96908V18.9074C23.1064 20.0979 22.1435 21.0638 20.9565 21.0638H2.32376C1.13682 21.0638 0.173828 20.0979 0.173828 18.9074V5.96908C0.173828 4.77858 1.13682 3.81269 2.32376 3.81269H6.2653L6.81623 2.33466C7.12976 1.49457 7.9315 0.9375 8.82731 0.9375H14.4485C15.3443 0.9375 16.146 1.49457 16.4596 2.33466L17.015 3.81269H20.9565C22.1435 3.81269 23.1064 4.77858 23.1064 5.96908ZM17.015 12.4383C17.015 9.46424 14.6053 7.04728 11.6401 7.04728C8.67502 7.04728 6.2653 9.46424 6.2653 12.4383C6.2653 15.4123 8.67502 17.8292 11.6401 17.8292C14.6053 17.8292 17.015 15.4123 17.015 12.4383ZM15.5817 12.4383C15.5817 14.6171 13.8125 16.3917 11.6401 16.3917C9.46781 16.3917 7.69859 14.6171 7.69859 12.4383C7.69859 10.2594 9.46781 8.48488 11.6401 8.48488C13.8125 8.48488 15.5817 10.2594 15.5817 12.4383Z" fill="#EE684A"/>
</svg>
