<svg width="25" height="32" viewBox="0 0 25 32" fill="none" xmlns="http://www.w3.org/2000/svg">
<g clip-path="url(#clip0_170_1111)">
<path d="M5.28516 24.5C5.28516 23.982 5.38316 23.48 5.52916 23C6.31216 20.412 9.00116 18.5 12.2902 18.5C15.5802 18.5 18.2712 20.412 19.0552 23C19.2002 23.48 19.2852 24.017 19.2852 24.506M16.7902 11C16.7902 12.1935 16.3161 13.3381 15.4721 14.182C14.6282 15.0259 13.4836 15.5 12.2902 15.5C11.0967 15.5 9.95209 15.0259 9.10818 14.182C8.26426 13.3381 7.79016 12.1935 7.79016 11C7.79016 9.80653 8.26426 8.66193 9.10818 7.81802C9.95209 6.97411 11.0967 6.5 12.2902 6.5C13.4836 6.5 14.6282 6.97411 15.4721 7.81802C16.3161 8.66193 16.7902 9.80653 16.7902 11Z" stroke="#1D1D1D" stroke-width="2" stroke-linecap="square" stroke-linejoin="round"/>
</g>
<defs>
<clipPath id="clip0_170_1111">
<rect width="16" height="21" fill="white" transform="translate(4.28516 5.5)"/>
</clipPath>
</defs>
</svg>
