<svg width="176" height="56" viewBox="0 0 176 56" fill="none" xmlns="http://www.w3.org/2000/svg">
<g clip-path="url(#clip0_170_1670)">
<mask id="mask0_170_1670" style="mask-type:luminance" maskUnits="userSpaceOnUse" x="0" y="0" width="175" height="56">
<path d="M174.924 0H0.285156V56H174.924V0Z" fill="white"/>
</mask>
<g mask="url(#mask0_170_1670)">
<path d="M8.27452 2.61178C8.11159 2.16373 7.85556 1.7506 7.50644 1.37238C7.15731 0.994156 6.66271 0.697398 6.02846 0.482102C5.39422 0.266807 4.64941 0.15625 3.78823 0.15625C3.48565 0.15625 2.8805 0.162069 1.97859 0.173707C1.07667 0.185344 0.51807 0.191163 0.308594 0.191163V12.4106H2.46155V7.99416C2.81068 8.02907 3.34018 8.04653 4.05008 8.04653C5.44659 8.04653 6.54052 7.66249 7.33187 6.89441C8.12323 6.12633 8.5189 5.1895 8.5189 4.08393C8.5189 3.54861 8.43744 3.05401 8.27452 2.60596V2.61178ZM5.62115 5.54445C5.2022 5.87612 4.65523 6.03905 3.98025 6.03905C3.52639 6.03905 3.02015 6.00995 2.46155 5.95176V2.19865C3.22963 2.17537 3.74168 2.16373 3.99771 2.16373C5.49895 2.16373 6.24958 2.79798 6.24958 4.06648C6.24958 4.71818 6.0401 5.21278 5.62115 5.54445Z" fill="white"/>
<path d="M13.4826 0.15625L8.31543 12.4106H10.4801L11.7544 9.28593H16.9738L18.2481 12.4106H20.5349L15.3678 0.15625H13.4826ZM12.5748 7.27845L14.3728 2.93181L16.1534 7.27845H12.5748Z" fill="white"/>
<path d="M27.6393 6.09223V6.03986C28.1746 5.72565 28.5819 5.32415 28.8612 4.83537C29.1405 4.34659 29.2802 3.852 29.2802 3.35158C29.2802 2.29256 28.9485 1.46629 28.2735 0.878596C27.6044 0.290899 26.7141 -0.00585938 25.6085 -0.00585938C24.7939 -0.00585938 24.0316 0.168704 23.3217 0.517831C22.6118 0.866959 22.0532 1.32664 21.6459 1.89688L22.8853 3.32831C23.5487 2.44385 24.3749 2.00162 25.3641 2.00162C25.8995 2.00162 26.33 2.13545 26.6559 2.40312C26.9818 2.67078 27.1447 3.05482 27.1447 3.55524C27.1447 4.05565 26.9701 4.43388 26.621 4.72481C26.2719 5.01575 25.8587 5.16122 25.3816 5.16122H24.1946V7.1687H25.4514C26.1497 7.1687 26.685 7.31417 27.0574 7.60511C27.4298 7.89605 27.616 8.28591 27.616 8.77469C27.616 9.36821 27.4007 9.82207 26.9701 10.1305C26.5395 10.4389 26.0042 10.596 25.3641 10.596C24.8753 10.596 24.3633 10.4563 23.828 10.177C23.2926 9.89772 22.833 9.53695 22.4489 9.09472L21.2793 10.5436C21.6517 11.1138 22.1929 11.5968 22.9086 12.0041C23.6243 12.4056 24.4797 12.6035 25.4689 12.6035C26.6326 12.6035 27.6335 12.2718 28.483 11.6084C29.3267 10.9451 29.7515 10.0723 29.7515 8.98998C29.7515 8.25682 29.5769 7.63421 29.2278 7.12215C28.8787 6.6101 28.3492 6.26679 27.6393 6.09223Z" fill="white"/>
<path d="M37.444 5.96905V5.93414C38.6077 5.38717 39.1896 4.46199 39.1896 3.15858C39.1896 2.25085 38.8637 1.51768 38.2179 0.964899C37.572 0.412115 36.5537 0.132812 35.1688 0.132812C33.9585 0.132812 32.7831 0.161907 31.6426 0.220095V12.393C32.434 12.4512 33.5686 12.4803 35.0466 12.4803C36.4082 12.4803 37.508 12.1719 38.34 11.5551C39.1721 10.9383 39.5911 10.0247 39.5911 8.81444C39.5911 8.03472 39.3932 7.40629 38.9976 6.92915C38.6019 6.45201 38.084 6.13198 37.444 5.96905ZM33.7956 2.19848C34.1796 2.16357 34.6277 2.14611 35.1397 2.14611C35.7332 2.14611 36.1987 2.27994 36.542 2.54179C36.8853 2.80363 37.0599 3.18185 37.0599 3.67063C37.0599 4.20596 36.8912 4.61327 36.5537 4.88676C36.2162 5.16024 35.7798 5.29989 35.2445 5.29989H33.7956V2.19848ZM35.2095 10.4728C34.7557 10.4728 34.2844 10.4437 33.7956 10.3855V7.15608H35.3143C35.9893 7.15608 36.5129 7.28992 36.8853 7.55176C37.2578 7.81361 37.444 8.20347 37.444 8.71552C37.444 9.89091 36.6991 10.4786 35.2095 10.4786V10.4728Z" fill="white"/>
<path d="M43.6355 8.88467V0.191406H41.4883V12.4108H43.3736L49.7801 3.73505V12.4108H51.9272V0.191406H50.0419L43.6355 8.88467Z" fill="white"/>
<path d="M53.7949 2.19889H57.7575V12.4108H59.9046V2.19889H63.8672V0.191406H53.7949V2.19889Z" fill="white"/>
<path d="M67.8815 8.88467V0.191406H65.7344V12.4108H67.6197L74.032 3.73505V12.4108H76.1791V0.191406H74.2939L67.8815 8.88467Z" fill="white"/>
<path d="M80.776 7.24377H85.175V5.23629H80.776V2.19889H85.7045V0.191406H78.6289V12.4108H85.8791V10.4034H80.776V7.24377Z" fill="white"/>
<path d="M91.7852 2.19889H95.7478V12.4108H97.8949V2.19889H101.857V0.191406H91.7852V2.19889Z" fill="white"/>
<path d="M109.598 7.01684L105.6 0.191406H103.174L108.568 9.12906L108.393 9.54801C108.125 10.1182 107.724 10.4034 107.189 10.4034C106.874 10.4034 106.572 10.3044 106.281 10.1066L105.53 11.9221C105.938 12.2479 106.496 12.4108 107.206 12.4108C107.916 12.4108 108.568 12.1781 109.091 11.7126C109.615 11.2471 110.092 10.5314 110.523 9.56547L114.683 0.191406H112.519L109.603 7.01684H109.598Z" fill="white"/>
<path d="M123.778 1.37238C123.429 0.994156 122.934 0.697398 122.3 0.482102C121.665 0.266807 120.915 0.15625 120.054 0.15625C119.751 0.15625 119.146 0.162069 118.244 0.173707C117.342 0.185344 116.784 0.191163 116.574 0.191163V12.4106H118.721V7.99416C119.07 8.02907 119.6 8.04653 120.31 8.04653C121.706 8.04653 122.8 7.66249 123.592 6.89441C124.383 6.12633 124.779 5.1895 124.779 4.08393C124.779 3.54861 124.697 3.05401 124.534 2.60596C124.371 2.15792 124.115 1.74478 123.766 1.36656L123.778 1.37238ZM121.892 5.54445C121.473 5.87612 120.927 6.03905 120.252 6.03905C119.798 6.03905 119.291 6.00995 118.733 5.95176V2.19865C119.501 2.17537 120.013 2.16373 120.269 2.16373C121.77 2.16373 122.521 2.79798 122.521 4.06648C122.521 4.71818 122.311 5.21278 121.892 5.54445Z" fill="white"/>
<path d="M128.485 8.88467V0.191406H126.338V12.4108H128.223L134.63 3.73505V12.4108H136.777V0.191406H134.891L128.485 8.88467Z" fill="white"/>
<path d="M144.505 6.09223V6.03986C145.041 5.72565 145.448 5.32415 145.727 4.83537C146.007 4.34659 146.146 3.852 146.146 3.35158C146.146 2.29256 145.815 1.46629 145.14 0.878596C144.47 0.290899 143.58 -0.00585938 142.475 -0.00585938C141.66 -0.00585938 140.898 0.168704 140.188 0.517831C139.478 0.866959 138.919 1.32664 138.512 1.89688L139.751 3.32831C140.415 2.44385 141.241 2.00162 142.23 2.00162C142.765 2.00162 143.196 2.13545 143.522 2.40312C143.848 2.67078 144.011 3.05482 144.011 3.55524C144.011 4.05565 143.836 4.43388 143.487 4.72481C143.138 5.01575 142.725 5.16122 142.248 5.16122H141.061V7.1687H142.317C143.016 7.1687 143.551 7.31417 143.923 7.60511C144.296 7.89605 144.482 8.28591 144.482 8.77469C144.482 9.36821 144.267 9.82207 143.836 10.1305C143.406 10.4389 142.87 10.596 142.23 10.596C141.741 10.596 141.229 10.4563 140.694 10.177C140.159 9.89772 139.699 9.53695 139.315 9.09472L138.145 10.5436C138.518 11.1138 139.059 11.5968 139.775 12.0041C140.49 12.4056 141.346 12.6035 142.335 12.6035C143.499 12.6035 144.499 12.2718 145.349 11.6084C146.193 10.9451 146.618 10.0723 146.618 8.98998C146.618 8.25682 146.443 7.63421 146.094 7.12215C145.745 6.6101 145.215 6.26679 144.505 6.09223Z" fill="white"/>
<path d="M154.85 5.89963L150.678 0.191406H148.514V12.4108H150.661V3.63031L154.553 9.00687H154.868L158.725 3.57794V12.4108H160.855V0.191406H158.83L154.85 5.89963Z" fill="white"/>
<path d="M169.722 0.15625H167.837L162.67 12.4106H164.834L166.109 9.28593H171.328L172.602 12.4106H174.889L169.722 0.15625ZM166.929 7.27845L168.727 2.93181L170.508 7.27845H166.929Z" fill="white"/>
<path d="M2.43229 30.3574V21.6641H0.285156V33.8836H2.17045L8.57693 25.2078V33.8836H10.7241V21.6641H8.83878L2.43229 30.3574Z" fill="white"/>
<path d="M16.6123 33.8836H18.7595V23.6716H23.5076V21.6641H16.6123V33.8836Z" fill="white"/>
<path d="M30.0192 21.4707C28.1688 21.4707 26.6443 22.0701 25.4514 23.2804C24.2586 24.4849 23.6592 25.9861 23.6592 27.7783C23.6592 29.5705 24.2586 31.1707 25.4572 32.3344C26.6559 33.4982 28.1746 34.08 30.0133 34.08C31.8521 34.08 33.3591 33.4865 34.5694 32.2995C35.7798 31.1125 36.3849 29.6054 36.3849 27.7783C36.3849 25.9512 35.7798 24.3859 34.5753 23.2222C33.3708 22.0584 31.8463 21.4766 30.0075 21.4766L30.0192 21.4707ZM33.0158 30.8448C32.2768 31.6594 31.2818 32.0667 30.0192 32.0667C28.867 32.0667 27.8953 31.6536 27.1098 30.8332C26.3242 30.0127 25.9286 28.9944 25.9286 27.7667C25.9286 26.5389 26.3126 25.4799 27.0923 24.6769C27.8662 23.8739 28.8438 23.4724 30.0192 23.4724C31.1946 23.4724 32.1605 23.8739 32.946 24.6769C33.7315 25.4799 34.1272 26.5098 34.1272 27.7667C34.1272 29.0235 33.7548 30.0244 33.0158 30.839V30.8448Z" fill="white"/>
<path d="M44.025 32.0666C42.7797 32.0666 41.7615 31.6651 40.9759 30.8679C40.1904 30.0708 39.7948 29.035 39.7948 27.7665C39.7948 26.498 40.1729 25.4216 40.9235 24.6418C41.6742 23.8621 42.6284 23.4723 43.7806 23.4723C44.793 23.4723 45.7125 23.7457 46.5387 24.2927L47.4988 22.7042C46.591 21.8779 45.3516 21.4648 43.7806 21.4648C41.8255 21.4648 40.2951 22.0583 39.1895 23.2453C38.084 24.4324 37.5312 25.9394 37.5312 27.7665C37.5312 29.5936 38.1131 31.188 39.2768 32.3401C40.4406 33.4922 41.9593 34.0683 43.8329 34.0683C44.6243 34.0683 45.3749 33.9403 46.0964 33.6842C46.818 33.4282 47.365 33.0965 47.7491 32.6892L46.9285 31.0832C46.079 31.7349 45.1131 32.0608 44.0308 32.0608L44.025 32.0666Z" fill="white"/>
<path d="M48.8486 23.6716H52.8112V33.8836H54.9583V23.6716H58.9209V21.6641H48.8486V23.6716Z" fill="white"/>
<path d="M62.8306 28.7165H67.2296V26.709H62.8306V23.6716H67.7533V21.6641H60.6777V33.8836H67.9279V31.8761H62.8306V28.7165Z" fill="white"/>
<path d="M69.7266 33.8836H71.8737V23.6716H77.3201V33.8836H79.4673V21.6641H69.7266V33.8836Z" fill="white"/>
<path d="M88.6782 22.845C88.3291 22.4668 87.8345 22.1701 87.2002 21.9548C86.566 21.7395 85.8154 21.6289 84.9542 21.6289C84.6516 21.6289 84.0465 21.6347 83.1445 21.6464C82.2426 21.658 81.684 21.6638 81.4746 21.6638V33.8833H83.6217V29.4668C83.9708 29.5017 84.5003 29.5192 85.2102 29.5192C86.6067 29.5192 87.7007 29.1352 88.492 28.3671C89.2834 27.599 89.679 26.6622 89.679 25.5566C89.679 25.0213 89.5976 24.5267 89.4347 24.0786C89.2717 23.6306 89.0157 23.2174 88.6666 22.8392L88.6782 22.845ZM86.7929 27.0171C86.374 27.3488 85.827 27.5117 85.152 27.5117C84.6982 27.5117 84.1919 27.4826 83.6333 27.4244V23.6713C84.4014 23.648 84.9135 23.6364 85.1695 23.6364C86.6707 23.6364 87.4214 24.2706 87.4214 25.5391C87.4214 26.1908 87.2119 26.6854 86.7929 27.0171Z" fill="white"/>
<path d="M93.7058 30.3574V21.6641H91.5586V33.8836H93.4439L99.8504 25.2078V33.8836H101.997V21.6641H100.112L93.7058 30.3574Z" fill="white"/>
<path d="M106.166 30.3574V21.6641H104.018V33.8836H105.904L112.316 25.2078V33.8836H114.463V21.6641H112.578L106.166 30.3574Z" fill="white"/>
<path d="M122.818 27.3724L118.64 21.6641H116.475V33.8836H118.623V25.103L122.521 30.4796H122.835L126.693 25.0507V33.8836H128.823V21.6641H126.798L122.818 27.3724Z" fill="white"/>
<path d="M137.359 32.0666C136.114 32.0666 135.095 31.6651 134.31 30.8679C133.524 30.0708 133.129 29.035 133.129 27.7665C133.129 26.498 133.507 25.4216 134.257 24.6418C135.008 23.8621 135.962 23.4723 137.114 23.4723C138.127 23.4723 139.046 23.7457 139.873 24.2927L140.833 22.7042C139.925 21.8779 138.686 21.4648 137.114 21.4648C135.159 21.4648 133.629 22.0583 132.523 23.2453C131.418 24.4324 130.865 25.9394 130.865 27.7665C130.865 29.5936 131.447 31.188 132.611 32.3401C133.774 33.4922 135.293 34.0683 137.167 34.0683C137.958 34.0683 138.709 33.9403 139.43 33.6842C140.152 33.4282 140.699 33.0965 141.083 32.6892L140.262 31.0832C139.413 31.7349 138.447 32.0608 137.365 32.0608L137.359 32.0666Z" fill="white"/>
<path d="M142.729 23.6716H146.692V33.8836H148.839V23.6716H152.802V21.6641H142.729V23.6716Z" fill="white"/>
<path d="M160.029 27.4418V27.4069C161.192 26.8599 161.774 25.9347 161.774 24.6313C161.774 23.7236 161.449 22.9904 160.803 22.4376C160.157 21.8848 159.138 21.6055 157.754 21.6055C156.543 21.6055 155.368 21.6346 154.227 21.6928V33.8599C155.019 33.9181 156.153 33.9472 157.631 33.9472C158.993 33.9472 160.093 33.6388 160.925 33.022C161.757 32.4052 162.176 31.4916 162.176 30.2813C162.176 29.5016 161.978 28.8732 161.582 28.396C161.187 27.9189 160.669 27.5989 160.029 27.4359V27.4418ZM156.38 23.6712C156.764 23.6363 157.212 23.6188 157.725 23.6188C158.318 23.6188 158.784 23.7527 159.127 24.0145C159.47 24.2763 159.645 24.6546 159.645 25.1433C159.645 25.6787 159.476 26.086 159.138 26.3595C158.801 26.633 158.365 26.7726 157.829 26.7726H156.38V23.6828V23.6712ZM157.794 31.9455C157.34 31.9455 156.869 31.9164 156.38 31.8582V28.6288H157.899C158.574 28.6288 159.098 28.7626 159.47 29.0245C159.843 29.2863 160.029 29.6762 160.029 30.1882C160.029 31.3636 159.284 31.9513 157.794 31.9513V31.9455Z" fill="white"/>
<path d="M169.751 21.6289H167.866L162.699 33.8833H164.864L166.138 30.7586H171.357L172.632 33.8833H174.919L169.751 21.6289ZM166.958 28.7511L168.756 24.4045L170.537 28.7511H166.958Z" fill="white"/>
<path d="M7.19799 48.8489L3.02592 43.1406H0.861328V55.3601H3.00846V46.5795L6.90123 51.9561H7.21545L11.0733 46.5272V55.3601H13.203V43.1406H11.1781L7.19799 48.8489Z" fill="white"/>
<path d="M39.6149 53.5453C38.3697 53.5453 37.3514 53.1438 36.5659 52.3466C35.7803 51.5494 35.3846 50.5195 35.3846 49.2452C35.3846 47.9709 35.7629 46.9002 36.5135 46.1205C37.2641 45.3408 38.2184 44.9509 39.3705 44.9509C40.383 44.9509 41.3024 45.2244 42.1286 45.7714L43.0887 44.1828C42.181 43.3566 40.9416 42.9434 39.3705 42.9434C37.4154 42.9434 35.8851 43.5369 34.7795 44.724C33.6739 45.911 33.1211 47.4181 33.1211 49.2452C33.1211 51.0723 33.703 52.6666 34.8668 53.8187C36.0305 54.9709 37.5492 55.5469 39.4229 55.5469C40.2142 55.5469 40.9649 55.4189 41.6864 55.1629C42.4021 54.9069 42.9549 54.5752 43.3389 54.1679L42.5185 52.5619C41.6689 53.2136 40.703 53.5394 39.6207 53.5394L39.6149 53.5453Z" fill="white"/>
<path d="M55.0164 43.1406H52.4329L47.6149 48.9361V43.1406H45.4678V55.3601H47.6149V49.0583L52.6075 55.3601H55.3307L49.989 48.8314L55.0164 43.1406Z" fill="white"/>
<path d="M62.5279 48.9182V48.8833C63.6917 48.3363 64.2736 47.4112 64.2736 46.1077C64.2736 45.2 63.9477 44.4668 63.3018 43.9141C62.656 43.3613 61.6377 43.082 60.2528 43.082C59.0425 43.082 57.8671 43.1111 56.7266 43.1693V55.3363C57.518 55.3945 58.6526 55.4236 60.1306 55.4236C61.4922 55.4236 62.5919 55.1152 63.424 54.4984C64.2561 53.8816 64.6751 52.9681 64.6751 51.7578C64.6751 50.9781 64.4772 50.3496 64.0816 49.8725C63.6859 49.3954 63.168 49.0753 62.5279 48.9124V48.9182ZM58.8796 45.1476C59.2636 45.1127 59.7116 45.0953 60.2237 45.0953C60.8172 45.0953 61.2827 45.2291 61.626 45.491C61.9693 45.7528 62.1439 46.131 62.1439 46.6198C62.1439 47.1551 61.9752 47.5624 61.6377 47.8359C61.3002 48.1094 60.8638 48.2491 60.3284 48.2491H58.8796V45.1593V45.1476ZM60.2935 53.422C59.8397 53.422 59.3683 53.3929 58.8796 53.3347V50.1052H60.3983C61.0732 50.1052 61.5969 50.2391 61.9693 50.4951C62.3417 50.757 62.5279 51.1468 62.5279 51.6589C62.5279 52.8343 61.7831 53.422 60.2935 53.422Z" fill="white"/>
<path d="M78.2684 43.1406H76.1387V55.3601H78.2684V43.1406Z" fill="white"/>
<path d="M70.081 47.2429C69.6272 47.2429 69.1733 47.272 68.7194 47.3301V43.1406H66.5723V55.3601C66.7701 55.3601 67.2182 55.3601 67.9281 55.3775C68.6322 55.3892 69.1966 55.395 69.6097 55.395C71.1575 55.395 72.3678 55.0226 73.2406 54.272C74.1135 53.5213 74.5499 52.4914 74.5499 51.188C74.5499 49.9544 74.1716 48.9885 73.421 48.2903C72.6704 47.592 71.5532 47.2429 70.0752 47.2429H70.081ZM69.8716 53.3875C69.7435 53.3875 69.6155 53.3875 69.4875 53.3817C69.3595 53.3817 69.2199 53.3642 69.0686 53.3526C68.9173 53.341 68.8009 53.3351 68.7194 53.3351V49.3376C69.2664 49.2794 69.6621 49.2504 69.9065 49.2504C70.6629 49.2504 71.2506 49.4191 71.6637 49.7566C72.0769 50.0941 72.2864 50.5887 72.2864 51.2404C72.2864 52.6718 71.4834 53.3875 69.8774 53.3875H69.8716Z" fill="white"/>
<path d="M23.5084 39.0723L25.7079 45.3624L32.5333 45.4381L26.8949 49.808L28.9257 55.9992L23.5084 52.217L18.0969 55.9992L20.1102 49.8371L14.4834 45.4381L21.3089 45.3624L23.5084 39.0723Z" fill="#E50843"/>
</g>
</g>
<defs>
<clipPath id="clip0_170_1670">
<rect width="175" height="56" fill="white" transform="translate(0.285156)"/>
</clipPath>
</defs>
</svg>
