<svg width="29" height="28" viewBox="0 0 29 28" fill="none" xmlns="http://www.w3.org/2000/svg">
<g clip-path="url(#clip0_170_1054)">
<path d="M0.285156 8.4C0.285156 5.46 0.285156 3.99 0.857406 2.8665C1.36073 1.87869 2.16385 1.07558 3.15166 0.57225C4.27516 0 5.74516 0 8.68516 0H19.8852C22.8252 0 24.2952 0 25.4187 0.57225C26.4065 1.07558 27.2096 1.87869 27.7129 2.8665C28.2852 3.99 28.2852 5.46 28.2852 8.4V19.6C28.2852 22.54 28.2852 24.01 27.7129 25.1335C27.2096 26.1213 26.4065 26.9244 25.4187 27.4277C24.2952 28 22.8252 28 19.8852 28H8.68516C5.74516 28 4.27516 28 3.15166 27.4277C2.16385 26.9244 1.36073 26.1213 0.857406 25.1335C0.285156 24.01 0.285156 22.54 0.285156 19.6V8.4Z" fill="#FF3000"/>
<path d="M21.3753 23.1875C20.1253 23.1875 19.2643 22.5024 19.2643 20.3801V19.9237H20.6534V20.3805C20.6534 21.5088 20.9588 21.8177 21.3753 21.8177C21.7918 21.8177 22.084 21.5088 22.084 20.9847C22.084 20.3263 21.9865 19.964 21.0143 19.2789C19.8755 18.4866 19.3475 17.64 19.3475 16.5524C19.3475 15.1686 20.0978 14.336 21.3753 14.336C22.2643 14.336 23.4447 14.6046 23.4447 16.8608V17.3849H22.056V16.8612C22.056 15.9749 21.7647 15.6796 21.3753 15.6796C20.9588 15.6796 20.7365 15.9749 20.7365 16.4986C20.7365 17.0358 20.8612 17.479 21.8338 18.2048C23.0422 19.1043 23.4727 19.8161 23.4727 20.9847C23.4727 22.1528 22.917 23.1875 21.3753 23.1875ZM16.6393 23.1875C15.3894 23.1875 14.5284 22.61 14.5284 20.3801V19.9237H15.917V20.3805C15.917 21.5088 16.2228 21.8177 16.6389 21.8177C17.0558 21.8177 17.3477 21.5088 17.3477 20.9847C17.3477 20.3263 17.2505 19.964 16.2784 19.2789C15.1392 18.4866 14.6115 17.64 14.6115 16.5524C14.6115 15.1686 15.3614 14.336 16.6393 14.336C17.5279 14.336 18.7087 14.6046 18.7087 16.8608V17.3849H17.3201V16.8612C17.3201 15.9749 17.0283 15.6796 16.6393 15.6796C16.2228 15.6796 16.0006 15.9749 16.0006 16.4986C16.0006 17.0358 16.1253 17.479 17.0974 18.2048C18.3058 19.1047 18.7363 19.8166 18.7363 20.9851C18.7363 22.1532 18.1807 23.1875 16.6393 23.1875ZM21.3753 13.664C20.1253 13.664 19.2643 12.9789 19.2643 10.8566V10.4002H20.6534V10.857C20.6534 11.9853 20.9588 12.2942 21.3753 12.2942C21.7918 12.2942 22.084 11.9853 22.084 11.4612C22.084 10.8032 21.9865 10.4405 21.0143 9.75537C19.8755 8.96306 19.3475 8.11694 19.3475 7.02887C19.3475 5.6455 20.0978 4.8125 21.3753 4.8125C22.2643 4.8125 23.4447 5.08112 23.4447 7.33775V7.86144H22.056V7.33775C22.056 6.45137 21.7647 6.15562 21.3753 6.15562C20.9588 6.15562 20.7365 6.45137 20.7365 6.97506C20.7365 7.51231 20.8612 7.95506 21.8338 8.68087C23.0422 9.58081 23.4727 10.2926 23.4727 11.4612C23.4727 12.6293 22.917 13.664 21.3753 13.664ZM16.6393 13.664C15.3894 13.664 14.5284 13.0865 14.5284 10.8566V10.4002H15.917V10.857C15.917 11.9853 16.2228 12.2942 16.6389 12.2942C17.0558 12.2942 17.3477 11.9853 17.3477 11.4612C17.3477 10.8032 17.2505 10.4405 16.2784 9.75537C15.1392 8.96306 14.6115 8.11694 14.6115 7.02887C14.6115 5.6455 15.3614 4.8125 16.6393 4.8125C17.5279 4.8125 18.7087 5.08112 18.7087 7.33775V7.86144H17.3201V7.33775C17.3201 6.45137 17.0283 6.15562 16.6393 6.15562C16.2228 6.15562 16.0006 6.45137 16.0006 6.97506C16.0006 7.51231 16.1253 7.95506 17.0974 8.68087C18.3058 9.58081 18.7363 10.2926 18.7363 11.4612C18.7363 12.6293 18.1807 13.664 16.6393 13.664ZM6.48672 19.9237H6.76453C7.37572 19.9237 7.68109 19.628 7.68109 18.2582V17.479C7.68109 16.1092 7.37572 15.8134 6.76453 15.8134H6.48672V19.9237ZM6.48672 23.0532H5.09809V14.4699H6.76497C8.57009 14.4699 9.07059 15.4639 9.07059 17.3443V18.3921C9.07059 20.2724 8.57009 21.2664 6.76497 21.2664H6.48672V23.0532ZM6.76453 9.05713H6.48628V6.28994H6.76453C7.38928 6.28994 7.68066 6.49119 7.68066 7.43181V7.91525C7.68109 8.85587 7.38972 9.05713 6.76453 9.05713ZM9.33397 13.5301L8.26428 9.95706C8.77834 9.54056 9.07016 8.85544 9.07016 8.00931V7.33775C9.07016 5.76625 8.34784 4.94681 6.76453 4.94681H5.09766V13.5301H6.48628V10.4002H6.66697C6.73697 10.4002 6.83366 10.4002 6.98634 10.3867L7.81978 13.5297H9.33353L9.33397 13.5301ZM10.9173 19.9237L11.6256 15.8134H11.7367L12.445 19.9237H10.9173ZM12.9727 23.0532H14.3617L12.8195 14.4699H10.5419L8.98616 23.0532H10.3752L10.6946 21.2669H12.6668L12.9727 23.0532ZM11.8198 13.6644C10.1114 13.6644 9.79203 12.4149 9.79203 10.8973V4.94725H11.2367V11.018C11.2367 12.0794 11.4309 12.3209 11.8198 12.3209C12.2088 12.3209 12.403 12.0794 12.403 11.018V4.94681H13.8477V10.8973C13.8477 12.4149 13.5283 13.6644 11.8198 13.6644Z" fill="white"/>
</g>
<defs>
<clipPath id="clip0_170_1054">
<rect width="28" height="28" fill="white" transform="translate(0.285156)"/>
</clipPath>
</defs>
</svg>
