<svg width="29" height="21" viewBox="0 0 29 21" fill="none" xmlns="http://www.w3.org/2000/svg">
<path d="M27.1734 0.901953H28.1734C28.1734 0.404894 27.7257 0.00195312 27.1734 0.00195312V0.901953ZM27.1734 4.93239V5.83239C27.7257 5.83239 28.1734 5.42945 28.1734 4.93239H27.1734ZM1.57031 0.901953V0.00195312C1.01803 0.00195312 0.570312 0.404894 0.570312 0.901953H1.57031ZM1.57031 4.93239H0.570312C0.570312 5.42945 1.01803 5.83239 1.57031 5.83239V4.93239ZM26.1734 0.901953V4.93239H28.1734V0.901953H26.1734ZM27.1734 4.03239H23.4013V5.83239H27.1734V4.03239ZM20.0177 10.3081C20.0402 10.1518 20.1654 9.82195 20.4995 9.53643C20.8092 9.27172 21.3527 8.99845 22.312 8.99845V7.19843C20.883 7.19843 19.8335 7.6232 19.1223 8.23121C18.4355 8.81823 18.1119 9.53553 18.0342 10.0774L20.0177 10.3081ZM14.3719 1.80195H27.1734V0.00195312H14.3719V1.80195ZM23.4013 4.03239H14.3719V5.83239H23.4013V4.03239ZM19.0259 9.29275H16.8559V11.0928H19.0259V9.29275ZM16.8559 9.29275H14.3719V11.0928H16.8559V9.29275ZM17.8559 20.8958V10.1928H15.8559V20.8958H17.8559ZM28.1734 10.1718V9.25124H26.1734V10.1718H28.1734ZM22.3529 20.8958V13.4887H20.3529V20.8958H22.3529ZM22.3529 13.4887V13.3826H20.3529V13.4887H22.3529ZM28.1734 9.25124C28.1734 6.78574 26.2994 4.64014 23.6374 4.05786L23.165 5.80693C24.9305 6.19311 26.1734 7.6161 26.1734 9.25124H28.1734ZM18.0259 10.1928C18.0259 12.0113 19.218 13.5756 20.9255 14.3023L21.7804 12.675C20.7409 12.2326 20.0259 11.2847 20.0259 10.1928H18.0259ZM20.9255 14.3023C21.5827 14.5819 22.3168 14.7381 23.0879 14.7381V12.9381C22.6192 12.9381 22.1765 12.8436 21.7804 12.675L20.9255 14.3023ZM23.0879 14.7381C25.8864 14.7381 28.1734 12.697 28.1734 10.1718H26.1734C26.1734 11.6962 24.7893 12.9381 23.0879 12.9381V14.7381ZM0.570312 0.901953V4.93239H2.57031V0.901953H0.570312ZM1.57031 5.83239H5.34245V4.03239H1.57031V5.83239ZM10.7095 10.0774C10.6317 9.53553 10.3082 8.81823 9.62143 8.23121C8.9101 7.6232 7.86062 7.19843 6.43161 7.19843V8.99845C7.39104 8.99845 7.93455 9.27172 8.24413 9.53643C8.57826 9.82195 8.70358 10.1518 8.72601 10.3081L10.7095 10.0774ZM14.3719 0.00195312H1.57031V1.80195H14.3719V0.00195312ZM5.34245 5.83239H14.3719V4.03239H5.34245V5.83239ZM9.71777 11.0928H11.8878V9.29275H9.71777V11.0928ZM11.8878 11.0928H14.3719V9.29275H11.8878V11.0928ZM12.8878 20.8958V10.1928H10.8878V20.8958H12.8878ZM2.57031 10.1718V9.25124H0.570312V10.1718H2.57031ZM8.39073 20.8958V13.4887H6.39073V20.8958H8.39073ZM8.39073 13.4887V13.3826H6.39073V13.4887H8.39073ZM2.57031 9.25124C2.57031 7.6161 3.81316 6.19311 5.57862 5.80693L5.10627 4.05786C2.44428 4.64014 0.570312 6.78573 0.570312 9.25124H2.57031ZM8.71776 10.1928C8.71776 11.2847 8.00276 12.2326 6.96326 12.6751L7.81821 14.3023C9.52561 13.5756 10.7178 12.0113 10.7178 10.1928H8.71776ZM6.96326 12.6751C6.56722 12.8436 6.12456 12.9381 5.65573 12.9381V14.7381C6.42691 14.7381 7.16098 14.5819 7.81821 14.3023L6.96326 12.6751ZM5.65573 12.9381C3.95442 12.9381 2.57031 11.6962 2.57031 10.1718H0.570312C0.570312 12.697 2.85732 14.7381 5.65573 14.7381V12.9381Z" fill="#2D3134"/>
</svg>
