<svg width="20" height="21" viewBox="0 0 20 21" fill="none" xmlns="http://www.w3.org/2000/svg">
<circle cx="9.75366" cy="10.3504" r="9.75366" fill="#F7F7F7"/>
<g clip-path="url(#clip0_2001_127)">
<path d="M12.1205 5.8859C12.147 5.85932 12.1785 5.83823 12.2132 5.82384C12.2479 5.80945 12.285 5.80205 12.3226 5.80205C12.3601 5.80205 12.3973 5.80945 12.432 5.82384C12.4667 5.83823 12.4981 5.85932 12.5247 5.8859L14.2372 7.59847C14.2638 7.62498 14.2849 7.65648 14.2993 7.69115C14.3137 7.72583 14.3211 7.763 14.3211 7.80055C14.3211 7.83809 14.3137 7.87527 14.2993 7.90994C14.2849 7.94462 14.2638 7.97612 14.2372 8.00263L8.52868 13.7112C8.50129 13.7384 8.46866 13.7597 8.43278 13.774L5.57851 14.9157C5.52664 14.9364 5.46981 14.9415 5.41508 14.9303C5.36035 14.9191 5.31012 14.892 5.27061 14.8525C5.2311 14.813 5.20406 14.7628 5.19283 14.708C5.18161 14.6533 5.18669 14.5965 5.20745 14.5446L6.34916 11.6903C6.36339 11.6545 6.38475 11.6218 6.41195 11.5944L12.1205 5.8859ZM11.5845 7.22969L12.8934 8.53866L13.6315 7.80055L12.3226 6.49158L11.5845 7.22969ZM12.4898 8.94226L11.1809 7.63329L7.47032 11.3438V11.5111H7.75574C7.83144 11.5111 7.90404 11.5412 7.95757 11.5947C8.0111 11.6482 8.04117 11.7208 8.04117 11.7965V12.082H8.3266C8.4023 12.082 8.4749 12.112 8.52843 12.1656C8.58195 12.2191 8.61203 12.2917 8.61203 12.3674V12.6528H8.77929L12.4898 8.94226ZM6.91773 11.8964L6.85722 11.9569L5.98496 14.1382L8.16619 13.2659L8.2267 13.2054C8.17225 13.1851 8.12531 13.1486 8.09216 13.1008C8.059 13.0531 8.04122 12.9964 8.04117 12.9382V12.6528H7.75574C7.68004 12.6528 7.60745 12.6227 7.55392 12.5692C7.50039 12.5157 7.47032 12.4431 7.47032 12.3674V12.082H7.18489C7.12677 12.0819 7.07004 12.0641 7.0223 12.031C6.97456 11.9978 6.93807 11.9509 6.91773 11.8964Z" fill="#2D3134"/>
</g>
<defs>
<clipPath id="clip0_2001_127">
<rect width="9.13367" height="9.13367" fill="white" transform="translate(5.18701 5.80231)"/>
</clipPath>
</defs>
</svg>
