<svg width="21" height="21" viewBox="0 0 21 21" fill="none" xmlns="http://www.w3.org/2000/svg">
<circle cx="10.261" cy="10.3504" r="9.75366" fill="#F7F7F7"/>
<g clip-path="url(#clip0_2001_131)">
<path d="M11.0469 13.2485H11.4755C11.5323 13.2485 11.5869 13.2263 11.627 13.1867C11.6672 13.1471 11.6898 13.0935 11.6898 13.0375V9.24066C11.6898 9.18472 11.6672 9.13106 11.627 9.09151C11.5869 9.05195 11.5323 9.02972 11.4755 9.02972H11.0469C10.9901 9.02972 10.9356 9.05195 10.8954 9.09151C10.8552 9.13106 10.8327 9.18472 10.8327 9.24066V13.0375C10.8327 13.0935 10.8552 13.1471 10.8954 13.1867C10.9356 13.2263 10.9901 13.2485 11.0469 13.2485ZM13.9755 7.34222H12.5039L11.8968 6.34554C11.8206 6.22057 11.7128 6.11715 11.5839 6.04537C11.455 5.9736 11.3095 5.9359 11.1614 5.93597H9.36105C9.21304 5.93597 9.06755 5.97368 8.93875 6.04546C8.80994 6.11723 8.70222 6.22062 8.62605 6.34554L8.01855 7.34222H6.54694C6.47117 7.34222 6.3985 7.37186 6.34491 7.4246C6.29133 7.47735 6.26123 7.54888 6.26123 7.62347V7.90472C6.26123 7.97932 6.29133 8.05085 6.34491 8.1036C6.3985 8.15634 6.47117 8.18597 6.54694 8.18597H6.83266V14.0922C6.83266 14.316 6.92296 14.5306 7.08371 14.6888C7.24446 14.8471 7.46247 14.936 7.6898 14.936H12.8327C13.06 14.936 13.278 14.8471 13.4388 14.6888C13.5995 14.5306 13.6898 14.316 13.6898 14.0922V8.18597H13.9755C14.0513 8.18597 14.124 8.15634 14.1775 8.1036C14.2311 8.05085 14.2612 7.97932 14.2612 7.90472V7.62347C14.2612 7.54888 14.2311 7.47735 14.1775 7.4246C14.124 7.37186 14.0513 7.34222 13.9755 7.34222ZM9.3298 6.83088C9.33935 6.81523 9.35286 6.80229 9.36901 6.79333C9.38516 6.78436 9.4034 6.77967 9.42194 6.77972H11.1005C11.119 6.7797 11.1372 6.7844 11.1533 6.79337C11.1695 6.80233 11.1829 6.81526 11.1925 6.83088L11.5043 7.34222H9.01819L9.3298 6.83088ZM12.8327 14.0922H7.6898V8.18597H12.8327V14.0922ZM9.04694 13.2485H9.47552C9.53235 13.2485 9.58685 13.2263 9.62704 13.1867C9.66723 13.1471 9.6898 13.0935 9.6898 13.0375V9.24066C9.6898 9.18472 9.66723 9.13106 9.62704 9.09151C9.58685 9.05195 9.53235 9.02972 9.47552 9.02972H9.04694C8.99011 9.02972 8.93561 9.05195 8.89542 9.09151C8.85524 9.13106 8.83266 9.18472 8.83266 9.24066V13.0375C8.83266 13.0935 8.85524 13.1471 8.89542 13.1867C8.93561 13.2263 8.99011 13.2485 9.04694 13.2485Z" fill="#2D3134"/>
</g>
<defs>
<clipPath id="clip0_2001_131">
<rect width="8" height="9" fill="white" transform="translate(6.26123 5.93597)"/>
</clipPath>
</defs>
</svg>
